<svg xmlns="http://www.w3.org/2000/svg" viewBox="0 0 256 100" width="256" height="100">
  <!-- Compact SFF desktop: ~10% narrower than desktop-compute-1 -->
  <!-- Vent slats fill top ~70%, thin silver port strip at bottom ~30% -->

  <!-- Outer chassis -->
  <rect x="0" y="0" width="256" height="100" rx="3" fill="#1a1a1a" stroke="#3a3a3a" stroke-width="1"/>

  <!-- Vent slat area (full width, top 68px) -->
  <clipPath id="vc2">
    <rect x="1" y="1" width="254" height="67" rx="2"/>
  </clipPath>
  <rect x="1" y="1" width="254" height="67" rx="2" fill="#111"/>
  <g clip-path="url(#vc2)" stroke="#242424" stroke-width="2.8">
    <line x1="-40" y1="0"  x2="60"  y2="120"/>
    <line x1="-32" y1="0"  x2="68"  y2="120"/>
    <line x1="-24" y1="0"  x2="76"  y2="120"/>
    <line x1="-16" y1="0"  x2="84"  y2="120"/>
    <line x1="-8"  y1="0"  x2="92"  y2="120"/>
    <line x1="0"   y1="0"  x2="100" y2="120"/>
    <line x1="8"   y1="0"  x2="108" y2="120"/>
    <line x1="16"  y1="0"  x2="116" y2="120"/>
    <line x1="24"  y1="0"  x2="124" y2="120"/>
    <line x1="32"  y1="0"  x2="132" y2="120"/>
    <line x1="40"  y1="0"  x2="140" y2="120"/>
    <line x1="48"  y1="0"  x2="148" y2="120"/>
    <line x1="56"  y1="0"  x2="156" y2="120"/>
    <line x1="64"  y1="0"  x2="164" y2="120"/>
    <line x1="72"  y1="0"  x2="172" y2="120"/>
    <line x1="80"  y1="0"  x2="180" y2="120"/>
    <line x1="88"  y1="0"  x2="188" y2="120"/>
    <line x1="96"  y1="0"  x2="196" y2="120"/>
    <line x1="104" y1="0"  x2="204" y2="120"/>
    <line x1="112" y1="0"  x2="212" y2="120"/>
    <line x1="120" y1="0"  x2="220" y2="120"/>
    <line x1="128" y1="0"  x2="228" y2="120"/>
    <line x1="136" y1="0"  x2="236" y2="120"/>
    <line x1="144" y1="0"  x2="244" y2="120"/>
    <line x1="152" y1="0"  x2="252" y2="120"/>
    <line x1="160" y1="0"  x2="260" y2="120"/>
    <line x1="168" y1="0"  x2="268" y2="120"/>
    <line x1="176" y1="0"  x2="276" y2="120"/>
    <line x1="184" y1="0"  x2="284" y2="120"/>
    <line x1="192" y1="0"  x2="292" y2="120"/>
    <line x1="200" y1="0"  x2="300" y2="120"/>
    <line x1="208" y1="0"  x2="308" y2="120"/>
    <line x1="216" y1="0"  x2="316" y2="120"/>
    <line x1="224" y1="0"  x2="324" y2="120"/>
    <line x1="232" y1="0"  x2="332" y2="120"/>
    <line x1="240" y1="0"  x2="340" y2="120"/>
    <line x1="248" y1="0"  x2="348" y2="120"/>
  </g>

  <!-- ODD bay recess (center-right of vent area) -->
  <rect x="116" y="26" width="116" height="14" rx="1" fill="#0a0a0a" stroke="#222" stroke-width="0.7"/>
  <line x1="118" y1="31"  x2="230" y2="31"  stroke="#1a1a1a" stroke-width="0.8"/>
  <line x1="118" y1="37"  x2="230" y2="37"  stroke="#1a1a1a" stroke-width="0.8"/>

  <!-- Silver bottom strip -->
  <defs>
    <linearGradient id="sg2" x1="0" y1="0" x2="0" y2="1">
      <stop offset="0%" stop-color="#d4d4d4"/>
      <stop offset="100%" stop-color="#989898"/>
    </linearGradient>
  </defs>
  <rect x="0" y="69" width="256" height="31" fill="url(#sg2)"/>
  <rect x="0" y="69" width="256" height="31" fill="none" stroke="#666" stroke-width="0.5"/>

  <!-- SD card slot -->
  <rect x="75" y="78" width="28" height="4" rx="1" fill="#222" stroke="#555" stroke-width="0.6"/>
  <!-- USB-C -->
  <rect x="111" y="76" width="12" height="8" rx="4" fill="#222" stroke="#555" stroke-width="0.6"/>
  <!-- 2x USB-A -->
  <rect x="129" y="76" width="16" height="8" rx="1" fill="#222" stroke="#555" stroke-width="0.6"/>
  <rect x="149" y="76" width="16" height="8" rx="1" fill="#222" stroke="#555" stroke-width="0.6"/>
  <!-- Headset jack -->
  <circle cx="175" cy="80" r="4.5" fill="#222" stroke="#555" stroke-width="0.6"/>
  <!-- Power LED dot -->
  <circle cx="195" cy="80" r="2.5" fill="#38bdf8"/>
  <!-- Power button: rounded rect, power symbol centered inside -->
  <rect x="222" y="74" width="24" height="14" rx="3" fill="#2e2e2e" stroke="#888" stroke-width="0.9"/>
  <line x1="234" y1="76.5" x2="234" y2="79.5" stroke="#ccc" stroke-width="1.4" stroke-linecap="round"/>
  <path d="M231,79 A3.2,3.2 0 1,0 237,79" fill="none" stroke="#ccc" stroke-width="1.4" stroke-linecap="round"/>
</svg>
