<svg xmlns="http://www.w3.org/2000/svg" viewBox="0 0 380 70" width="380" height="70">
  <!-- 2U rack NAS SSD: single row of 24 tall portrait drives spanning full width -->

  <!-- Rack ears -->
  <rect x="0"   y="0" width="10" height="70" rx="2" fill="#0a150a" stroke="#4ade80" stroke-width="1.2"/>
  <circle cx="5" cy="13" r="2.5" fill="none" stroke="#4ade80" stroke-width="1"/>
  <circle cx="5" cy="57" r="2.5" fill="none" stroke="#4ade80" stroke-width="1"/>
  <rect x="370" y="0" width="10" height="70" rx="2" fill="#0a150a" stroke="#4ade80" stroke-width="1.2"/>
  <circle cx="375" cy="13" r="2.5" fill="none" stroke="#4ade80" stroke-width="1"/>
  <circle cx="375" cy="57" r="2.5" fill="none" stroke="#4ade80" stroke-width="1"/>

  <!-- Chassis body -->
  <rect x="10" y="0" width="360" height="70" rx="1" fill="#0d1f0d" stroke="#4ade80" stroke-width="1.5"/>

  <!-- 23 tall portrait drives, each 14px wide, 62px tall, evenly spaced -->
  <rect x="12"    y="4" width="14" height="62" rx="1" fill="#0a150a" stroke="#4ade80" stroke-width="0.8"/>
  <rect x="27.5"  y="4" width="14" height="62" rx="1" fill="#0a150a" stroke="#4ade80" stroke-width="0.8"/>
  <rect x="43"    y="4" width="14" height="62" rx="1" fill="#0a150a" stroke="#4ade80" stroke-width="0.8"/>
  <rect x="58.5"  y="4" width="14" height="62" rx="1" fill="#0a150a" stroke="#4ade80" stroke-width="0.8"/>
  <rect x="74"    y="4" width="14" height="62" rx="1" fill="#0a150a" stroke="#4ade80" stroke-width="0.8"/>
  <rect x="89.5"  y="4" width="14" height="62" rx="1" fill="#0a150a" stroke="#4ade80" stroke-width="0.8"/>
  <rect x="105"   y="4" width="14" height="62" rx="1" fill="#0a150a" stroke="#4ade80" stroke-width="0.8"/>
  <rect x="120.5" y="4" width="14" height="62" rx="1" fill="#0a150a" stroke="#4ade80" stroke-width="0.8"/>
  <rect x="136"   y="4" width="14" height="62" rx="1" fill="#0a150a" stroke="#4ade80" stroke-width="0.8"/>
  <rect x="151.5" y="4" width="14" height="62" rx="1" fill="#0a150a" stroke="#4ade80" stroke-width="0.8"/>
  <rect x="167"   y="4" width="14" height="62" rx="1" fill="#0a150a" stroke="#4ade80" stroke-width="0.8"/>
  <rect x="182.5" y="4" width="14" height="62" rx="1" fill="#0a150a" stroke="#4ade80" stroke-width="0.8"/>
  <rect x="198"   y="4" width="14" height="62" rx="1" fill="#0a150a" stroke="#4ade80" stroke-width="0.8"/>
  <rect x="213.5" y="4" width="14" height="62" rx="1" fill="#0a150a" stroke="#4ade80" stroke-width="0.8"/>
  <rect x="229"   y="4" width="14" height="62" rx="1" fill="#0a150a" stroke="#4ade80" stroke-width="0.8"/>
  <rect x="244.5" y="4" width="14" height="62" rx="1" fill="#0a150a" stroke="#4ade80" stroke-width="0.8"/>
  <rect x="260"   y="4" width="14" height="62" rx="1" fill="#0a150a" stroke="#4ade80" stroke-width="0.8"/>
  <rect x="275.5" y="4" width="14" height="62" rx="1" fill="#0a150a" stroke="#4ade80" stroke-width="0.8"/>
  <rect x="291"   y="4" width="14" height="62" rx="1" fill="#0a150a" stroke="#4ade80" stroke-width="0.8"/>
  <rect x="306.5" y="4" width="14" height="62" rx="1" fill="#0a150a" stroke="#4ade80" stroke-width="0.8"/>
  <rect x="322"   y="4" width="14" height="62" rx="1" fill="#0a150a" stroke="#4ade80" stroke-width="0.8"/>
  <rect x="337.5" y="4" width="14" height="62" rx="1" fill="#0a150a" stroke="#4ade80" stroke-width="0.8"/>
  <rect x="353"   y="4" width="14" height="62" rx="1" fill="#0a150a" stroke="#4ade80" stroke-width="0.8"/>

  <!-- Green handle tab at top of each drive -->
  <rect x="12"    y="4" width="14" height="7" rx="1" fill="#16a34a"/>
  <rect x="27.5"  y="4" width="14" height="7" rx="1" fill="#16a34a"/>
  <rect x="43"    y="4" width="14" height="7" rx="1" fill="#16a34a"/>
  <rect x="58.5"  y="4" width="14" height="7" rx="1" fill="#16a34a"/>
  <rect x="74"    y="4" width="14" height="7" rx="1" fill="#16a34a"/>
  <rect x="89.5"  y="4" width="14" height="7" rx="1" fill="#16a34a"/>
  <rect x="105"   y="4" width="14" height="7" rx="1" fill="#16a34a"/>
  <rect x="120.5" y="4" width="14" height="7" rx="1" fill="#16a34a"/>
  <rect x="136"   y="4" width="14" height="7" rx="1" fill="#16a34a"/>
  <rect x="151.5" y="4" width="14" height="7" rx="1" fill="#16a34a"/>
  <rect x="167"   y="4" width="14" height="7" rx="1" fill="#16a34a"/>
  <rect x="182.5" y="4" width="14" height="7" rx="1" fill="#16a34a"/>
  <rect x="198"   y="4" width="14" height="7" rx="1" fill="#16a34a"/>
  <rect x="213.5" y="4" width="14" height="7" rx="1" fill="#16a34a"/>
  <rect x="229"   y="4" width="14" height="7" rx="1" fill="#16a34a"/>
  <rect x="244.5" y="4" width="14" height="7" rx="1" fill="#16a34a"/>
  <rect x="260"   y="4" width="14" height="7" rx="1" fill="#16a34a"/>
  <rect x="275.5" y="4" width="14" height="7" rx="1" fill="#16a34a"/>
  <rect x="291"   y="4" width="14" height="7" rx="1" fill="#16a34a"/>
  <rect x="306.5" y="4" width="14" height="7" rx="1" fill="#16a34a"/>
  <rect x="322"   y="4" width="14" height="7" rx="1" fill="#16a34a"/>
  <rect x="337.5" y="4" width="14" height="7" rx="1" fill="#16a34a"/>
  <rect x="353"   y="4" width="14" height="7" rx="1" fill="#16a34a"/>
</svg>
